<?xml version="1.0"?>
<svg xmlns="http://www.w3.org/2000/svg" id="Vrstva_1" data-name="Vrstva 1" width="166.34" height="50" viewBox="0 0 166.34 50">
  <defs>
    <style>.cls-1{fill:#fff}</style>
  </defs>
  <polygon class="cls-1" points="15.87 9.14 20.32 23.1 25.01 9.14 30.56 9.14 30.56 27.04 26.94 27.04 26.94 13.61 22.26 27.04 18.34 27.03 13.93 13.6 13.92 27.03 10.3 27.03 10.3 9.14 15.87 9.14"></polygon>
  <g>
    <path class="cls-1" d="m38.04,23.87h5.19c.54,0,.93-.03,1.19-.08.25-.06.49-.17.7-.35.56-.43.84-1.03.84-1.79,0-.73-.26-1.27-.78-1.61-.38-.25-1-.37-1.86-.37h-5.27s0,4.21,0,4.21Zm0-7.38h5.19c.54,0,.93-.03,1.18-.08.25-.06.49-.17.71-.35.56-.43.84-1.02.84-1.78,0-.72-.26-1.26-.78-1.61-.38-.25-1-.37-1.86-.37h-5.27s0,4.18,0,4.18Zm-3.81,10.54V9.14s10.13,0,10.13,0c1.58,0,2.73.18,3.46.54.84.43,1.47,1.12,1.9,2.08.3.67.46,1.36.46,2.07,0,.93-.25,1.79-.74,2.59-.49.8-1.11,1.35-1.87,1.66,1.73.8,2.6,2.21,2.6,4.22,0,1.17-.28,2.16-.83,2.94-.47.68-1.09,1.15-1.84,1.41-.76.26-1.88.39-3.37.39h-9.9Z"></path>
    <path class="cls-1" d="m59.63,27.05v-3.17s8.18,0,8.18,0c1.31,0,2.19-.13,2.63-.39.63-.38.95-.94.95-1.7,0-.87-.37-1.51-1.1-1.91-.42-.23-1.09-.34-2.01-.34h-3.32c-2.03,0-3.49-.37-4.39-1.1-.56-.47-1-1.05-1.31-1.75-.32-.7-.47-1.45-.47-2.24,0-1.26.37-2.41,1.11-3.45.72-1,1.87-1.59,3.45-1.75.54-.05,1.33-.08,2.39-.08h8.88s0,3.17,0,3.17h-8.02c-1.2,0-1.99.06-2.39.16-.81.2-1.21.81-1.21,1.84,0,.87.34,1.45,1.01,1.75.46.2,1.21.3,2.26.3h2.87c1.48,0,2.57.13,3.3.38,1.27.43,2.14,1.18,2.62,2.25.38.86.58,1.79.58,2.78,0,1.08-.25,2.05-.75,2.92-.7,1.22-1.76,1.95-3.17,2.19-.68.11-1.71.17-3.07.17h-9Z"></path>
    <path class="cls-1" d="m91.76,9.16v3.17s-4.96,0-4.96,0c-1.3,0-2.25.09-2.84.27-.59.18-1.08.53-1.47,1.05-.26.35-.44.71-.54,1.07-.1.36-.18.97-.25,1.85h10.06s0,3.17,0,3.17h-10.06c.13,1.55.58,2.64,1.35,3.24s2.07.91,3.92.91h4.79s0,3.17,0,3.17h-4.96c-1.35,0-2.53-.09-3.55-.25-1.61-.26-2.88-.97-3.84-2.11-1.35-1.64-2.03-3.87-2.03-6.69,0-3.12.96-5.54,2.87-7.28.66-.59,1.36-1,2.1-1.22.74-.23,1.74-.35,2.99-.35h6.43Z"></path>
    <path class="cls-1" d="m98.58,17.08h5.34c.89,0,1.53-.13,1.91-.4.57-.4.85-1.1.85-2.08,0-1.1-.43-1.8-1.29-2.11-.29-.1-.79-.16-1.47-.16h-5.34s0,4.75,0,4.75Zm0,3.17v6.82s-3.81,0-3.81,0V9.16s8.74,0,8.74,0c2.51,0,4.26.32,5.26.96.67.43,1.19.99,1.56,1.7.37.71.56,1.48.56,2.33,0,1.7-.43,3.01-1.3,3.93-.54.56-1.25.98-2.13,1.28.7.24,1.23.49,1.59.77.36.28.68.69.97,1.23.22.42.37.83.46,1.23.09.4.17.99.23,1.77.1,1.28.25,2.19.43,2.7h-4.28c-.13-.42-.26-1.27-.39-2.55-.11-1.05-.29-1.85-.57-2.41-.27-.55-.69-.99-1.25-1.31-.69-.38-1.69-.56-3.01-.55h-3.07Z"></path>
    <polygon class="cls-1" points="130.77 9.17 122.95 27.06 119.13 27.06 111.59 9.16 115.88 9.17 121.14 22.64 126.49 9.17 130.77 9.17"></polygon>
    <rect class="cls-1" x="132.65" y="9.17" width="3.81" height="17.9"></rect>
    <path class="cls-1" d="m140.05,27.07v-3.17s8.18,0,8.18,0c1.31,0,2.19-.13,2.63-.39.63-.38.95-.94.95-1.7,0-.87-.37-1.51-1.1-1.91-.42-.23-1.09-.34-2.01-.34h-3.32c-2.03,0-3.49-.37-4.39-1.1-.56-.47-1-1.05-1.31-1.75-.32-.7-.47-1.45-.47-2.24,0-1.26.37-2.41,1.11-3.45.72-1,1.87-1.59,3.45-1.75.54-.05,1.33-.08,2.39-.08h8.88s0,3.17,0,3.17h-8.02c-1.2,0-1.99.06-2.39.16-.81.2-1.21.81-1.21,1.84,0,.87.34,1.45,1.01,1.75.46.2,1.21.3,2.26.3h2.87c1.48,0,2.57.13,3.3.38,1.27.43,2.14,1.18,2.62,2.25.38.86.58,1.79.58,2.78,0,1.08-.25,2.05-.75,2.92-.7,1.22-1.76,1.95-3.17,2.19-.68.11-1.71.17-3.07.17h-9Z"></path>
    <path class="cls-1" d="m24.59,43.28h3.48c.99,0,1.67-.19,2.05-.57.44-.43.66-1.11.66-2.04,0-.81-.22-1.45-.67-1.91-.35-.36-1.06-.54-2.13-.54h-3.39s0,5.06,0,5.06Zm0,1.69v4.8s-2.11,0-2.11,0v-13.24s5.84,0,5.84,0c1.02,0,1.78.09,2.28.27.85.3,1.49.84,1.92,1.6.35.63.52,1.4.52,2.3,0,1.5-.46,2.64-1.39,3.42-.36.3-.83.52-1.41.65-.58.13-1.35.19-2.33.19h-3.33Z"></path>
    <path class="cls-1" d="m37.06,42.47h3.78c1.12,0,1.87-.13,2.23-.4.52-.39.78-.96.78-1.73,0-.88-.28-1.49-.85-1.83-.32-.2-1.04-.29-2.16-.29h-3.78s0,4.25,0,4.25Zm0,1.69v5.62s-2.11,0-2.11,0v-13.24s6.03,0,6.03,0c1.74,0,2.96.24,3.65.71.46.32.82.73,1.08,1.26.26.52.39,1.09.39,1.7,0,1.14-.37,2.03-1.11,2.67-.41.34-.96.61-1.64.8.89.4,1.5.86,1.82,1.41.32.54.53,1.44.61,2.68.05.81.09,1.29.12,1.46.03.16.11.35.23.56h-2.16c-.08-.14-.13-.29-.15-.42-.02-.14-.07-.64-.15-1.49-.13-1.4-.52-2.37-1.16-2.91-.65-.53-1.76-.8-3.33-.8h-2.11Z"></path>
    <path class="cls-1" d="m53.94,38.05c-1.83,0-3.06.63-3.68,1.91-.37.77-.56,1.84-.56,3.2,0,1.64.27,2.87.82,3.69.65.96,1.78,1.44,3.39,1.44,1.83,0,3.04-.64,3.64-1.93.32-.7.49-1.74.49-3.1,0-1.67-.24-2.88-.72-3.65-.65-1.03-1.78-1.56-3.38-1.57m.01-1.69c2.5,0,4.24.76,5.24,2.26.72,1.11,1.08,2.63,1.08,4.58,0,2.4-.61,4.14-1.81,5.22-1.16,1.04-2.72,1.55-4.7,1.55-2.26,0-3.91-.64-4.94-1.93-.41-.51-.74-1.21-.99-2.09-.25-.88-.37-1.81-.37-2.77,0-.98.13-1.9.39-2.77.26-.87.62-1.56,1.07-2.09.56-.66,1.25-1.15,2.07-1.48.82-.32,1.81-.49,2.96-.5"></path>
    <path class="cls-1" d="m64.49,38.23v9.87s3.37,0,3.37,0c1.5,0,2.55-.44,3.15-1.31.55-.79.82-1.95.82-3.46,0-1.71-.32-3.01-.95-3.9-.3-.43-.7-.73-1.19-.92-.49-.19-1.15-.28-1.98-.28h-3.23Zm-2.1-1.69h5.07c1.4,0,2.43.1,3.08.3,1.21.38,2.16,1.24,2.83,2.57.47.94.71,2.15.71,3.63,0,2.96-.8,4.94-2.4,5.96-.49.31-1.01.52-1.55.62-.54.11-1.37.16-2.48.16h-5.26s0-13.24,0-13.24Z"></path>
    <path class="cls-1" d="m78.11,36.55v7.87c0,.73.04,1.32.13,1.75.09.43.25.78.47,1.05.58.72,1.54,1.09,2.9,1.09,1.5,0,2.54-.42,3.13-1.27.17-.24.28-.56.34-.95.06-.39.09-1,.09-1.83v-7.71s2.11,0,2.11,0v7.71c0,1.15-.07,2-.2,2.55-.26,1.1-.99,1.94-2.18,2.52-.91.45-2.09.67-3.54.67-1.3,0-2.34-.21-3.11-.63-1.01-.55-1.68-1.38-2.01-2.5-.16-.55-.24-1.36-.24-2.44v-7.87s2.11,0,2.11,0Z"></path>
    <path class="cls-1" d="m99.88,48.11v1.69s-4.11,0-4.11,0c-1.18,0-2.11-.1-2.8-.29-1.37-.39-2.39-1.3-3.04-2.74-.47-1.03-.71-2.19-.71-3.5,0-1.54.32-2.91.96-4.08.53-.98,1.2-1.66,2.01-2.05.81-.39,1.97-.58,3.47-.58h4.22s0,1.69,0,1.69h-4.11c-.9,0-1.58.07-2.04.21-.46.14-.84.4-1.15.77-.35.41-.62.99-.82,1.71-.2.73-.29,1.53-.29,2.39,0,1.64.38,2.89,1.14,3.75.36.4.77.68,1.24.82.47.15,1.17.22,2.1.22h3.93Z"></path>
    <polygon class="cls-1" points="105.21 38.24 100.62 38.24 100.62 36.55 111.9 36.56 111.9 38.24 107.31 38.24 107.31 49.8 105.2 49.8 105.21 38.24"></polygon>
    <rect class="cls-1" x="113.4" y="36.56" width="2.1" height="13.24"></rect>
    <path class="cls-1" d="m124.09,38.07c-1.83,0-3.06.63-3.68,1.91-.37.77-.56,1.84-.56,3.2,0,1.64.27,2.87.82,3.69.65.96,1.78,1.44,3.39,1.44,1.83,0,3.04-.64,3.64-1.93.32-.7.49-1.74.49-3.1,0-1.67-.24-2.88-.72-3.65-.65-1.03-1.78-1.56-3.38-1.57m.01-1.69c2.5,0,4.24.76,5.24,2.26.72,1.11,1.08,2.63,1.08,4.58,0,2.4-.61,4.14-1.81,5.22-1.16,1.04-2.72,1.55-4.7,1.55-2.26,0-3.91-.64-4.94-1.93-.41-.51-.74-1.21-.99-2.09-.25-.88-.37-1.81-.37-2.77,0-.98.13-1.9.39-2.77.26-.87.62-1.56,1.07-2.09.56-.66,1.25-1.15,2.07-1.48.82-.32,1.81-.49,2.96-.5"></path>
    <polygon class="cls-1" points="134.6 39.25 134.59 49.8 132.53 49.8 132.53 36.56 135.06 36.56 141.78 47.16 141.78 36.57 143.85 36.57 143.84 49.81 141.38 49.81 134.6 39.25"></polygon>
    <polygon class="cls-1" points="1.33 0 166.34 .05 166.33 45.98 146.99 45.98 147 43.34 163.69 43.34 163.7 2.69 2.65 2.64 2.64 43.3 19.33 43.3 19.33 45.94 0 45.94 .01 0 1.33 0"></polygon>
  </g>
</svg>
